<svg width="22" height="20" viewBox="0 0 22 20" fill="currentColor" xmlns="http://www.w3.org/2000/svg">
<path id="overview" fill-rule="evenodd" clip-rule="evenodd" d="M13 0H9C8.44771 0 8 0.447715 8 1V19C8 19.5523 8.44771 20 9 20H13C13.5523 20 14 19.5523 14 19V1C14 0.447715 13.5523 0 13 0ZM12 18H10V2H12V18ZM21 5H17C16.4477 5 16 5.44772 16 6V19C16 19.5523 16.4477 20 17 20H21C21.5523 20 22 19.5523 22 19V6C22 5.44772 21.5523 5 21 5ZM18 18V7H20V18H18ZM1 10H5C5.55228 10 6 10.4477 6 11V19C6 19.5523 5.55228 20 5 20H1C0.447715 20 0 19.5523 0 19V11C0 10.4477 0.447715 10 1 10ZM2 12V18H4V12H2Z" fill="inherit"/>
</svg>
