<svg width="21" height="20" viewBox="0 0 21 20" fill="currentColor" xmlns="http://www.w3.org/2000/svg">
<path fill-rule="evenodd" clip-rule="evenodd" d="M15.7174 5.35433C15.7174 2.3622 13.3813 0 10.5002 0C7.61901 0 5.20508 2.3622 5.20508 5.35433C5.20508 8.26772 7.61901 10.6299 10.5002 10.6299C13.3813 10.6299 15.7174 8.26772 15.7174 5.35433ZM6.91819 5.35433C6.91819 3.30709 8.55344 1.65354 10.5002 1.65354C12.4469 1.65354 14.0821 3.30709 14.0821 5.35433C14.0821 7.32283 12.4469 8.97638 10.5002 8.97638C8.47557 8.97638 6.91819 7.32283 6.91819 5.35433Z" fill="inherit"/>
<path fill-rule="evenodd" clip-rule="evenodd" d="M12.1352 11.3386H8.86475C4.58197 11.3386 1.07787 14.8819 1 19.1339C1 19.6063 1.31148 20 1.77869 20H19.1434C19.6107 20 20 19.6851 20 19.2126C20 14.8819 16.418 11.3386 12.1352 11.3386ZM8.86475 13.0709H12.1352C15.1721 13.0709 17.8197 15.2756 18.2869 18.3465H2.71311C3.18033 15.2756 5.82787 13.0709 8.86475 13.0709Z" fill="inherit"/>
</svg>
