<?xml version="1.0" encoding="utf-8"?>
<!-- Generator: Adobe Illustrator 24.0.0, SVG Export Plug-In . SVG Version: 6.00 Build 0)  -->
<svg version="1.1" id="Layer_1" xmlns="http://www.w3.org/2000/svg" xmlns:xlink="http://www.w3.org/1999/xlink" x="0px" y="0px"
	 viewBox="0 0 500.3 555.6" style="enable-background:new 0 0 500.3 555.6;" xml:space="preserve">
<style type="text/css">
	.st0{fill:#327BF6;}
</style>
<path class="st0" d="M500.2,263.6c-0.2-4.7-0.6-9.5-1-14.2c-4-53.6-20-103.4-51-148.5C417.9,56.8,376.6,26.2,324,10
	C289.3-0.6,253.5-1.8,217.5,1.9C170.6,6.5,130,24.9,94.9,54c-39.8,33-64.5,75.6-79.8,123.2c-15.3,48-18.4,97.2-12,146.8
	c6,46.3,21.4,89.5,48.1,128.9c22.7,33.5,52,60.1,89.2,78.2c47.2,23,97.4,28.7,149.5,21.3c32.8-4.6,63.3-15.2,91-32.8
	c49.6-31.7,80.8-76.5,100.4-129.2c13.5-36.4,19.1-74.1,18.8-112.7C500.3,273.1,500.4,268.3,500.2,263.6z M459.2,277.8
	c0.2,33.8-4.4,66.8-15.8,98.7C427,422.8,401,462,359.5,489.8c-23.1,15.5-48.6,24.7-76.1,28.7c-43.6,6.4-85.5,1.5-125-18.7
	c-31.1-15.9-55.6-39.2-74.6-68.5c-22.3-34.5-35.2-72.4-40.2-113c-5.4-43.5-2.8-86.6,10-128.6c12.7-41.7,33.4-79,66.7-107.9
	c29.3-25.5,63.3-41.6,102.5-45.7c30.1-3.2,60-2.2,89,7.1c43.9,14.2,78.5,41,103.8,79.6c25.9,39.5,39.3,83.2,42.7,130.1
	c0.3,4.2,0.7,8.3,0.8,12.5C459.3,269.5,459.2,273.7,459.2,277.8z"/>
</svg>
